<?xml version="1.0" encoding="UTF-8"?>
<!DOCTYPE svg PUBLIC "-//W3C//DTD SVG 1.1//EN" "http://www.w3.org/Graphics/SVG/1.1/DTD/svg11.dtd">
<!-- Creator: CorelDRAW 2020 (64 Bit) -->
<svg xmlns="http://www.w3.org/2000/svg" xml:space="preserve" width="30.9604mm" height="9.27mm" version="1.1" shape-rendering="geometricPrecision" text-rendering="geometricPrecision" image-rendering="optimizeQuality" fill-rule="evenodd" clip-rule="evenodd"
viewBox="0 0 271.35 81.25"
 xmlns:xlink="http://www.w3.org/1999/xlink"
 xmlns:xodm="http://www.corel.com/coreldraw/odm/2003">
 <g id="Camada_x0020_1">
  <metadata id="CorelCorpID_0Corel-Layer"/>
  <path fill="#00769A" d="M200.19 55.88c-5.73,-2.65 -15.88,-13.53 -19.04,-13.8 -3.06,-0.27 -7.55,4.73 -7.29,7.99 0.36,4.44 17.15,23.83 21.01,27.55 8.59,8.28 13.28,1.06 20.06,-8.25l11.13 -16.56c1.36,-2.1 1.53,-2.51 3.22,-4.31l13.88 -16.15c0.11,-0.11 0.26,-0.28 0.37,-0.39l2.66 -2.69c0.11,-0.12 0.26,-0.29 0.36,-0.41l16.72 -14.71c4.19,-3.8 9.72,-5.31 7.59,-12.19 -10.12,-3.19 -31.71,14.02 -40.34,20.81 -10.76,8.47 -24.8,20.26 -30.35,33.13z"/>
  <path fill="#E6E6E6" fill-rule="nonzero" d="M54.26 0.96l-7.19 42.78 -12.04 0 3.82 -22.79c0.41,-2.33 0.91,-4.78 1.54,-7.33 0.5,-2.06 0.84,-3.65 1.04,-4.73 -0.26,0.64 -0.62,1.62 -1.1,2.94 -1.02,2.74 -1.95,5.08 -2.8,7.02l-11.02 24.89 -7.75 0 -2.95 -24.89c-0.28,-2.19 -0.46,-4.53 -0.57,-7.02 -0.09,-1.48 -0.17,-2.63 -0.26,-3.44 -0.58,5.91 -1.23,11.01 -1.94,15.3l-3.35 20.06 -9.69 0 7.11 -42.78 17.27 0 2.27 18.93c0.18,1.55 0.35,2.64 0.49,3.29 0.29,-0.96 0.72,-2.06 1.27,-3.29l8.38 -18.93 17.47 0zm34.57 29.31l-21.76 0c-0.11,0.87 -0.16,1.51 -0.16,1.92 0,1.39 0.44,2.48 1.33,3.26 0.89,0.78 2.01,1.17 3.37,1.17 2.57,0 4.38,-1.35 5.44,-4.04l10.65 1.72c-1.38,3.1 -3.61,5.61 -6.69,7.53 -3.08,1.91 -6.5,2.88 -10.26,2.88 -4.71,0 -8.55,-1.34 -11.48,-4.02 -2.94,-2.68 -4.41,-6.35 -4.41,-10.98 0,-5.04 1.73,-9.35 5.2,-12.96 3.46,-3.6 8,-5.4 13.59,-5.4 4.75,0 8.51,1.4 11.32,4.19 2.81,2.79 4.21,6.51 4.21,11.14 0,1.04 -0.12,2.23 -0.34,3.59zm-11.43 -6.09c0.11,-0.65 0.16,-1.15 0.16,-1.51 0,-1.12 -0.34,-2.11 -1.04,-2.95 -0.7,-0.83 -1.67,-1.25 -2.92,-1.25 -1.33,0 -2.52,0.5 -3.6,1.52 -1.08,1.02 -1.74,2.42 -1.99,4.19l9.39 0zm33.24 -23.22l-7.12 42.78 -12.04 0 7.12 -42.78 12.04 0zm19.04 -0.96l-1.55 9.3 -12.28 0 1.55 -9.3 12.28 0zm-2.02 12.12l-5.29 31.62 -12.28 0 5.28 -31.62 12.29 0zm32.78 7.33l-9.3 2.03c-0.71,-2.05 -2.65,-3.08 -5.84,-3.08 -2.22,0 -3.34,0.63 -3.34,1.88 0,1.1 1.07,1.85 3.22,2.22 4.38,0.75 7.47,1.57 9.27,2.48 1.79,0.9 3.14,2.04 4.05,3.43 0.91,1.38 1.36,2.96 1.36,4.71 0,3.18 -1.33,5.85 -3.99,8.04 -2.66,2.18 -6.7,3.27 -12.12,3.27 -4.03,0 -7.55,-0.79 -10.54,-2.36 -2.99,-1.58 -4.86,-3.94 -5.61,-7.1l9.88 -1.44c0.77,2.27 2.98,3.4 6.64,3.4 1.42,0 2.48,-0.2 3.16,-0.61 0.7,-0.41 1.04,-0.88 1.04,-1.4 0,-0.49 -0.22,-0.87 -0.68,-1.1 -0.46,-0.25 -1.62,-0.57 -3.49,-0.97 -3.7,-0.82 -6.34,-1.55 -7.9,-2.21 -1.56,-0.66 -2.9,-1.71 -3.99,-3.15 -1.1,-1.44 -1.65,-3.11 -1.65,-5.01 0,-3.24 1.28,-5.9 3.85,-8 2.57,-2.09 6.04,-3.13 10.42,-3.13 3.99,0 7.39,0.77 10.2,2.3 2.82,1.53 4.61,3.46 5.36,5.81zm25.95 -7.33l-1.38 8.08 -5.72 0 -1.91 11.25c-0.19,1.1 -0.29,1.8 -0.29,2.1 0,1.54 0.98,2.31 2.97,2.31 0.86,0 1.86,-0.13 2.99,-0.38l-1.38 8.28c-2.26,0.47 -4.43,0.7 -6.5,0.7 -2.58,0 -4.48,-0.32 -5.73,-0.97 -1.24,-0.64 -2.26,-1.56 -3.05,-2.75 -0.78,-1.19 -1.18,-2.76 -1.18,-4.69 0,-0.81 0.19,-2.34 0.57,-4.57l1.89 -11.27 -4.38 0 1.35 -8.08 4.44 0 1.69 -9.33 11.54 -0.22 -1.64 9.56 5.72 0zm32.08 31.62l-12.38 0c-0.06,-0.61 -0.1,-1.1 -0.1,-1.48 0,-1.07 0.1,-2.35 0.28,-3.85 -2.49,4.02 -5.97,6.03 -10.43,6.03 -3.01,0 -5.45,-0.87 -7.31,-2.61 -1.87,-1.73 -2.8,-3.9 -2.8,-6.52 0,-1.95 0.5,-3.73 1.51,-5.35 1,-1.62 2.43,-2.92 4.28,-3.88 1.84,-0.96 3.73,-1.59 5.66,-1.89 1.92,-0.31 5.7,-0.72 11.32,-1.24 0.23,-0.77 0.36,-1.37 0.36,-1.82 0,-1.74 -1.22,-2.61 -3.66,-2.61 -2.39,0 -4.16,1.18 -5.29,3.53l-10.33 -2.1c2.61,-5.87 8.36,-8.81 17.24,-8.81 4.49,0 8.02,0.78 10.58,2.34 2.58,1.56 3.86,3.85 3.86,6.89 0,1.37 -0.75,6.18 -2.26,14.44 -0.57,3.08 -0.84,5.12 -0.84,6.13 0,0.81 0.11,1.74 0.31,2.79zm-11.05 -15.06c-5.83,0.44 -8.73,2.28 -8.73,5.53 0,1.79 0.94,2.67 2.82,2.67 1.21,0 2.41,-0.53 3.61,-1.59 1.21,-1.07 1.97,-3.27 2.3,-6.61z"/>
 </g>
</svg>
