<?xml version="1.0" encoding="UTF-8"?>
<!DOCTYPE svg PUBLIC "-//W3C//DTD SVG 1.1//EN" "http://www.w3.org/Graphics/SVG/1.1/DTD/svg11.dtd">
<!-- Creator: CorelDRAW 2020 (64 Bit) -->
<svg xmlns="http://www.w3.org/2000/svg" xml:space="preserve" width="11.51mm" height="11.51mm" version="1.1" shape-rendering="geometricPrecision" text-rendering="geometricPrecision" image-rendering="optimizeQuality" fill-rule="evenodd" clip-rule="evenodd"
viewBox="0 0 46.29 46.29"
 xmlns:xlink="http://www.w3.org/1999/xlink"
 xmlns:xodm="http://www.corel.com/coreldraw/odm/2003">
 <g id="Camada_x0020_1">
  <metadata id="CorelCorpID_0Corel-Layer"/>
  <rect fill="#FF0049" fill-rule="nonzero" width="46.29" height="46.29" rx="1.07" ry="1.07"/>
  <path fill="black" d="M28.69 23.97c-0.4,2.81 -3.06,5.21 -6.4,4.71 -2.75,-0.41 -5.22,-3.06 -4.69,-6.41 0.44,-2.77 3.05,-5.18 6.4,-4.68 2.79,0.42 5.17,3.03 4.69,6.38zm-1.02 -6.72c1.34,0.24 3.9,1.75 4.78,2.4 1,0.74 3.12,2.49 3.68,3.49 -0.54,1.03 -2.73,2.74 -3.69,3.48 -0.98,0.76 -3.63,2.23 -4.79,2.41 0.58,-0.73 1.26,-0.95 2,-2.4 1.41,-2.74 1.08,-6.13 -0.9,-8.28l-1.09 -1.1zm-9.04 11.78c-2.05,-0.34 -5.24,-2.65 -6.75,-4 -0.4,-0.36 -1.5,-1.44 -1.73,-1.89 1.29,-2.13 6.11,-5.39 8.47,-5.9 -0.15,0.21 -0.37,0.32 -0.57,0.5 -1.33,1.18 -2.3,3.44 -2.3,5.4 -0,1.36 0.33,2.43 0.88,3.49 0.83,1.64 1.76,2.09 2,2.4zm-10.84 -5.89c0.14,0.27 0.46,0.63 0.65,0.87 3.48,4.46 8.79,7.81 14.71,7.81 5.1,-0 10.03,-2.62 13.35,-6.21 0.47,-0.5 1.71,-1.92 2,-2.46l-1.32 -1.71c-1.56,-1.72 -2.78,-2.81 -4.85,-4.15 -8.24,-5.31 -17.4,-2.62 -23.24,4.21 -0.47,0.55 -0.88,1.02 -1.31,1.65z"/>
  <path fill="white" d="M20.29 22.02c0.58,0.43 1.35,0.73 2.11,0.14 0.97,-0.75 0.36,-1.97 0.35,-2.08 3.23,-0.45 4.6,3.74 2.33,5.43 -2.9,2.16 -5.94,-1.07 -4.79,-3.5zm8.4 1.95c0.47,-3.34 -1.9,-5.95 -4.69,-6.38 -3.35,-0.51 -5.96,1.91 -6.4,4.68 -0.53,3.35 1.94,6 4.69,6.41 3.35,0.5 6,-1.9 6.4,-4.71z"/>
  <path fill="white" d="M28.76 18.35c1.98,2.15 2.31,5.54 0.9,8.28 -0.74,1.45 -1.42,1.67 -2,2.4 1.16,-0.18 3.8,-1.65 4.79,-2.41 0.96,-0.74 3.15,-2.45 3.69,-3.48 -0.57,-1 -2.68,-2.74 -3.68,-3.49 -0.88,-0.65 -3.44,-2.16 -4.78,-2.4l1.09 1.1z"/>
  <path fill="white" d="M18.63 29.03c-0.24,-0.31 -1.17,-0.76 -2,-2.4 -0.54,-1.06 -0.88,-2.14 -0.88,-3.49 0,-1.96 0.97,-4.22 2.3,-5.4 0.2,-0.18 0.42,-0.29 0.57,-0.5 -2.35,0.5 -7.17,3.77 -8.47,5.9 0.23,0.45 1.33,1.53 1.73,1.89 1.51,1.36 4.7,3.66 6.75,4z"/>
  <path fill="black" d="M20.29 22.02c-1.15,2.43 1.89,5.66 4.79,3.5 2.27,-1.7 0.9,-5.89 -2.33,-5.43 0.01,0.1 0.62,1.32 -0.35,2.08 -0.76,0.59 -1.52,0.29 -2.11,-0.14z"/>
  <path fill="black" d="M31.37 5.32l0 0c0.54,0.12 0.87,0.66 0.75,1.19l-1.32 5.79c-0.12,0.53 -0.66,0.86 -1.19,0.74l-0 -0c-0.54,-0.12 -0.87,-0.66 -0.75,-1.19l1.32 -5.79c0.12,-0.53 0.66,-0.86 1.19,-0.74z"/>
  <path fill="black" d="M13.86 5.32l0 0c-0.54,0.12 -0.87,0.66 -0.75,1.19l1.32 5.79c0.12,0.53 0.66,0.86 1.19,0.74l0 -0c0.54,-0.12 0.87,-0.66 0.75,-1.19l-1.32 -5.79c-0.12,-0.53 -0.66,-0.86 -1.19,-0.74z"/>
  <path fill="black" d="M23.01 3.57l-0 0c-0.55,0 -1,0.45 -1,0.99l0.01 5.93c0,0.54 0.45,0.99 1,0.99l0 0c0.55,-0 1,-0.45 1,-0.99l-0.01 -5.94c-0,-0.54 -0.45,-0.99 -1,-0.99z"/>
 </g>
</svg>
